<?xml version="1.0" encoding="UTF-8"?>
<svg version="1.1" xmlns="http://www.w3.org/2000/svg" width="1057" height="611">
<path d="M0 0 C31.02 0 62.04 0 94 0 C110.96969697 49.6969697 110.96969697 49.6969697 114.61035156 60.59082031 C115.14312333 62.18233136 115.6781253 63.77309683 116.21484375 65.36328125 C117.03037862 67.77982007 117.84013858 70.1982203 118.6484375 72.6171875 C118.88887787 73.3261618 119.12931824 74.03513611 119.37704468 74.76559448 C120.33149627 77.64226698 121 79.94603588 121 83 C121.66 83 122.32 83 123 83 C123.25434814 81.75178467 123.50869629 80.50356934 123.77075195 79.2175293 C125.03855905 73.52664591 126.83091929 68.0482773 128.66796875 62.51953125 C129.20482048 60.88560677 129.20482048 60.88560677 129.7525177 59.21867371 C130.89346739 55.74860182 132.04021419 52.28048158 133.1875 48.8125 C134.68268187 44.2779003 136.1755202 39.74253118 137.66796875 35.20703125 C138.03163544 34.10320099 138.39530212 32.99937073 138.76998901 31.86209106 C142.25539393 21.26488051 145.63577931 10.6362845 149 0 C163.52 0 178.04 0 193 0 C196.65552232 11.57582068 200.24464237 23.09925912 203.48828125 34.78515625 C203.88053983 36.18819891 204.27314118 37.59114578 204.6660614 38.9940033 C205.67928131 42.61394303 206.68913587 46.23481073 207.69781494 49.85601807 C209.32819944 55.70846866 210.9620991 61.55993153 212.59947777 67.410429 C213.16686973 69.44076753 213.73164881 71.47182023 214.29621887 73.50294495 C214.63715073 74.72279587 214.97808258 75.94264679 215.3293457 77.19946289 C215.62879593 78.2746669 215.92824615 79.34987091 216.23677063 80.45765686 C216.9093061 82.96124055 216.9093061 82.96124055 218 85 C218.18410934 84.47859436 218.36821869 83.95718872 218.5579071 83.41998291 C234.22442264 39.05818892 234.22442264 39.05818892 241.65786743 18.40344238 C242.21887152 16.84397504 242.77891142 15.28416051 243.33798218 13.72399902 C244.10787651 11.57667431 244.88144214 9.43071207 245.65625 7.28515625 C246.08744141 6.08769775 246.51863281 4.89023926 246.96289062 3.65649414 C248 1 248 1 249 0 C251.98298214 -0.0952822 254.94276345 -0.12552175 257.92602539 -0.11352539 C258.86251419 -0.11367142 259.79900299 -0.11381744 260.76387024 -0.1139679 C263.87515539 -0.11326837 266.98638149 -0.10547415 270.09765625 -0.09765625 C272.24857043 -0.09579221 274.39948503 -0.09436824 276.55039978 -0.09336853 C282.22381758 -0.08954225 287.89720995 -0.07971102 293.57061768 -0.06866455 C299.35501766 -0.0584528 305.13942173 -0.05387142 310.92382812 -0.04882812 C322.28256328 -0.03808885 333.64127953 -0.02101111 345 0 C344.4054104 4.78039684 343.47208376 9.24307167 342.11181641 13.86206055 C341.92034279 14.51718124 341.72886917 15.17230194 341.53159332 15.84727478 C340.89283421 18.02846453 340.24719789 20.2075554 339.6015625 22.38671875 C339.13904988 23.96096002 338.67697483 25.53532989 338.21530151 27.1098175 C337.21741985 30.50952032 336.21647185 33.90829974 335.21313477 37.30639648 C333.59764639 42.77774684 331.98883292 48.25104656 330.38085938 53.72460938 C328.09411174 61.50647542 325.8043494 69.28744861 323.51269531 77.06787109 C320.08206034 88.7163333 316.66070094 100.36750668 313.2421875 112.01953125 C312.96429634 112.9666888 312.68640518 113.91384636 312.40009308 114.88970566 C311.27620459 118.72037795 310.15234175 122.55105776 309.02856064 126.38176155 C307.0601852 133.0913254 305.0908703 139.80061299 303.12109375 146.50976562 C294.26414298 176.67813088 285.42732024 206.85236373 276.59960938 237.02929688 C276.11913051 238.671697 275.63865159 240.3140971 275.15817261 241.95649719 C274.10767618 245.54739143 273.05744336 249.13836265 272.0074482 252.7294035 C269.34689757 261.8221847 266.67326431 270.91090136 264 280 C237.93 280 211.86 280 185 280 C178.5625 258.125 178.5625 258.125 176.53344727 251.21923828 C176.00291632 249.41955231 175.47224562 247.61990752 174.94140625 245.8203125 C174.66582886 244.88050537 174.39025146 243.94069824 174.10632324 242.97241211 C173.84250854 242.0793335 173.57869385 241.18625488 173.30688477 240.26611328 C172.96380028 239.10029221 172.96380028 239.10029221 172.61378479 237.91091919 C172.03562946 235.944373 172.03562946 235.944373 171 234 C170.80177139 234.54679413 170.60354279 235.09358826 170.39930725 235.6569519 C168.34065124 241.33481579 166.28031639 247.01206839 164.21899414 252.68896484 C163.44935491 254.80925025 162.68014762 256.92969249 161.91137695 259.05029297 C160.80793264 262.09383569 159.70294925 265.13681574 158.59765625 268.1796875 C158.25283707 269.13181122 157.90801788 270.08393494 157.55274963 271.06491089 C157.23249313 271.94567291 156.91223663 272.82643494 156.58227539 273.73388672 C156.30025772 274.51110077 156.01824005 275.28831482 155.72767639 276.08908081 C155 278 155 278 154 280 C129.25 280 104.5 280 79 280 C74.60362088 264.92670015 70.23055897 249.85212505 65.96484375 234.7421875 C65.40764857 232.77132408 64.85036966 230.80048433 64.29301453 228.82966614 C62.81319045 223.59598456 61.33461411 218.3619513 59.85633087 213.12783432 C58.611759 208.72181552 57.36644335 204.31600707 56.1211319 199.91019726 C47.40276312 169.06506761 38.69330176 138.21741428 29.99731445 107.3659668 C29.78094172 106.59832662 29.564569 105.83068644 29.34163952 105.03978443 C27.58496987 98.80747173 27.58496987 98.80747173 26.72333336 95.75039101 C23.33401773 83.72556539 19.93927555 71.70227872 16.54234695 59.67960167 C14.98856538 54.17981602 13.4354733 48.67983563 11.88239098 43.17985249 C10.39390029 37.90891895 8.90430637 32.6382988 7.41391373 27.36790276 C6.50175755 24.14125648 5.59067407 20.91430807 4.67990112 17.68727112 C4.25539889 16.18404722 3.8304374 14.68095293 3.40499878 13.17799377 C2.82561057 11.13095976 2.24780585 9.08348544 1.67041016 7.03588867 C1.34593903 5.88771164 1.0214679 4.73953461 0.68716431 3.55656433 C0 1 0 1 0 0 Z " fill="#0271BB" transform="translate(458,243)"/>
<path d="M0 0 C31.02 0 62.04 0 94 0 C94.33 30.36 94.66 60.72 95 92 C99.62 85.73 104.24 79.46 109 73 C112.97265625 67.62109375 112.97265625 67.62109375 114.546875 65.49023438 C120.11336793 57.95107965 125.6300119 50.37838785 131.10351562 42.77148438 C135.55971246 36.58682332 140.07611954 30.44788873 144.62890625 24.33398438 C145.15484375 23.62435547 145.68078125 22.91472656 146.22265625 22.18359375 C147.05764397 21.10390823 147.05764397 21.10390823 147.90950012 20.00241089 C149.56708222 17.62176376 150.87045859 15.39030795 152.19902039 12.83340454 C158.51430559 1.4265338 158.51430559 1.4265338 164.33342171 -0.95496178 C171.02548055 -2.39558301 177.81577892 -1.9523318 184.609375 -1.66015625 C186.78931246 -1.62839942 188.9693723 -1.60422396 191.1494751 -1.58726501 C196.85414956 -1.52272648 202.55131908 -1.35612761 208.25305176 -1.16729736 C214.08433483 -0.99254411 219.9168464 -0.91557389 225.75 -0.83007812 C237.16994272 -0.64842549 248.58434456 -0.35879114 260 0 C258.82149019 3.12873874 257.57078465 5.88845893 255.69116211 8.65234375 C255.23044815 9.33484695 254.76973419 10.01735016 254.2950592 10.72053528 C253.7942131 11.45213364 253.293367 12.18373199 252.77734375 12.9375 C251.98504616 14.10710518 251.98504616 14.10710518 251.17674255 15.30033875 C249.43468859 17.86988217 247.68607411 20.43489012 245.9375 23 C244.71191991 24.80541804 243.48682907 26.61116829 242.26220703 28.41723633 C239.74090317 32.13459235 237.21729621 35.85036812 234.69189453 39.56494141 C229.74649598 46.84157899 224.82403785 54.13366394 219.90182495 61.42599487 C217.34221393 65.2172438 214.78035039 69.00697007 212.21875 72.796875 C208.49965208 78.29984375 204.78173551 83.80360779 201.06530762 89.30838013 C199.41556041 91.75183527 197.76539911 94.19501041 196.11523438 96.63818359 C193.98433427 99.79341979 191.85561818 102.95011279 189.72851562 106.10791016 C185.22006126 112.79572576 180.69612006 119.46843389 176.0625 126.0703125 C175.34336426 127.10099854 174.62422852 128.13168457 173.88330078 129.19360352 C172.59053525 131.04034406 171.28758216 132.8800162 169.97216797 134.71069336 C169.14676514 135.89223999 169.14676514 135.89223999 168.3046875 137.09765625 C167.83015137 137.76289307 167.35561523 138.42812988 166.86669922 139.11352539 C165.81557255 140.97599234 165.81557255 140.97599234 166.22851562 143.1003418 C167.39686095 145.97720728 169.38541197 147.62543613 171.625 149.75 C174.60699309 152.59436264 177.4121178 155.44218364 180.0859375 158.578125 C185.07857987 164.3519291 190.57175027 169.64121599 196 175 C201.88944178 180.81407415 207.73723514 186.59036757 213.11328125 192.890625 C217.51047146 197.80673828 222.30739568 202.36744729 227 207 C238.71991784 218.56993718 238.71991784 218.56993718 242.46875 222.96875 C247.45421597 228.81128154 253.03963097 234.10647314 258.5 239.5 C270.90832071 251.75642637 270.90832071 251.75642637 276.25634766 258.03369141 C279.94604688 262.19454797 283.97681473 266.03705329 287.9375 269.9375 C289.65718872 271.63184327 291.37476647 273.32833277 293.08984375 275.02734375 C293.84128662 275.76718506 294.59272949 276.50702637 295.36694336 277.26928711 C297 279 297 279 297 280 C283.03964851 280.16373678 269.07944653 280.28659951 255.11833096 280.3626852 C248.63543311 280.39920435 242.15318068 280.44873331 235.6706543 280.52807617 C229.41363757 280.60417895 223.15724129 280.6460002 216.89979744 280.6641407 C214.51352229 280.67706682 212.1272808 280.70230914 209.74127007 280.7401104 C206.39634934 280.7909921 203.0539862 280.79792075 199.70874023 280.79467773 C198.23167099 280.83242813 198.23167099 280.83242813 196.72476196 280.87094116 C191.53072085 280.81651706 188.71110128 280.3032058 184.94496155 276.57826233 C183.93803172 275.40676799 182.95221144 274.21638811 182 273 C181.39671875 272.32453125 180.7934375 271.6490625 180.171875 270.953125 C179.70265625 270.39109375 179.2334375 269.8290625 178.75 269.25 C174.12094628 263.88732392 169.04095229 258.97000055 164 254 C158.4231709 248.50166514 152.92226386 243.00607216 147.828125 237.05078125 C143.9248274 232.67208202 139.67562521 228.61656403 135.5 224.5 C125.33932455 214.48303991 125.33932455 214.48303991 121.51953125 210.01953125 C116.599918 204.27392322 111.12114064 199.06546653 105.73852539 193.7590332 C104.3379919 192.37654966 102.9404363 190.99105139 101.54296875 189.60546875 C100.71821045 188.79231201 99.89345215 187.97915527 99.04370117 187.14135742 C97 185 97 185 95 182 C94.67 214.34 94.34 246.68 94 280 C62.98 280 31.96 280 0 280 C0 187.6 0 95.2 0 0 Z " fill="#0271BB" transform="translate(0,243)"/>
<path d="M0 0 C-0.39208004 6.01508162 -3.18097485 9.83420768 -6.4375 14.6875 C-12.59570998 24.16195311 -18.05040977 33.84324592 -23 44 C-23.56332031 45.14597656 -24.12664062 46.29195312 -24.70703125 47.47265625 C-29.04328526 57.25497071 -31.17199862 67.61562153 -33.37768555 78.0402832 C-36.30924383 91.55992988 -40.91807153 105.12614619 -51 115 C-49.47584473 115.02187378 -49.47584473 115.02187378 -47.92089844 115.04418945 C-8.16749642 115.65987023 24.3187514 118.57285363 53.37109375 148.4140625 C66.31956742 162.07413992 66.31956742 162.07413992 67.625 167.6875 C66.70242514 171.10102697 64.89198957 172.02677923 62 174 C29.34432134 185.51225538 -10.0842194 181.35190244 -43 173 C-42.71801758 173.75917725 -42.43603516 174.51835449 -42.14550781 175.30053711 C-31.0148421 205.42216051 -20.54787659 237.10631895 -34.58374023 268.16479492 C-40.51980029 280.43225753 -49.49465864 292.27248564 -60 301 C-60.66 301 -61.32 301 -62 301 C-63.17480737 298.65038527 -63.22986712 296.99147732 -63.39453125 294.37109375 C-65.55314504 263.48367619 -73.57962185 242.29547317 -95.25390625 219.64453125 C-102.55869979 211.85698614 -108.95537776 203.07039185 -113.125 193.1875 C-114.7213734 189.73947163 -114.7213734 189.73947163 -118.1875 188.6875 C-125.08901634 189.25319806 -129.99407109 193.2520228 -135.5 197.1875 C-154.49241792 210.68211273 -176.27242095 222.05745368 -200 223 C-200.73605469 223.03996094 -201.47210937 223.07992187 -202.23046875 223.12109375 C-215.53268214 223.49988375 -229.4286592 221.36670725 -242 217 C-242.66 216.34 -243.32 215.68 -244 215 C-243.82596942 210.81410661 -240.93767164 208.46218026 -238.1875 205.5625 C-237.17419822 204.48724385 -236.16118697 203.41171387 -235.1484375 202.3359375 C-234.62475586 201.78389648 -234.10107422 201.23185547 -233.56152344 200.66308594 C-232.07324148 199.07800516 -230.61411029 197.47160891 -229.1640625 195.8515625 C-180.55489472 141.73044732 -180.55489472 141.73044732 -154 138 C-154 137.34 -154 136.68 -154 136 C-154.52207031 135.7834375 -155.04414062 135.566875 -155.58203125 135.34375 C-176.76230417 123.57312983 -191.62514632 99.96594124 -198.47265625 77.2890625 C-203.45391385 59.78835022 -204.30664588 43.09918321 -204 25 C-202.68 25 -201.36 25 -200 25 C-198.578125 26.58203125 -198.578125 26.58203125 -197.25 28.8125 C-187.19851644 44.88980998 -177.67025319 56.04251822 -158.73046875 60.59765625 C-155.35751446 61.36953412 -151.98322816 62.10330288 -148.59057617 62.78344727 C-136.46719537 65.27276677 -125.02972149 69.25445831 -116.50390625 78.6484375 C-114.71422006 80.25683081 -113.31855811 80.49453235 -111 81 C-110.83201904 80.44747559 -110.66403809 79.89495117 -110.4909668 79.32568359 C-108.7366542 73.78729464 -106.56676114 68.73453496 -103.8125 63.625 C-103.41740234 62.88822021 -103.02230469 62.15144043 -102.61523438 61.39233398 C-97.01663605 51.15473708 -89.99579334 42.46370552 -82 34 C-81.30261719 33.23816406 -80.60523438 32.47632813 -79.88671875 31.69140625 C-59.43867424 10.12189677 -29.34018249 -1.02881159 0 0 Z M-62 51 C-63.38010404 52.37961471 -63.38010404 52.37961471 -64.7578125 54.2265625 C-65.29688232 54.92104492 -65.83595215 55.61552734 -66.39135742 56.33105469 C-66.96345947 57.08805664 -67.53556152 57.84505859 -68.125 58.625 C-68.71321533 59.40262695 -69.30143066 60.18025391 -69.9074707 60.98144531 C-80.66546937 75.43191445 -88.11341129 91.79339899 -95.30859375 108.2421875 C-95.8490332 109.47727051 -95.8490332 109.47727051 -96.40039062 110.73730469 C-97.07455564 112.28940776 -97.74163247 113.84461568 -98.40039062 115.40332031 C-101.09000828 121.63571391 -101.09000828 121.63571391 -104 124 C-110.07937212 124.94335085 -113.63326107 123.76061673 -118.57421875 120.16796875 C-124.33585631 115.01867915 -129.05716643 108.77450392 -133.796875 102.6953125 C-140.06123217 94.97340688 -148.95743882 89.03179722 -158 85 C-160.24500075 85.24270278 -161.40484992 85.40484992 -163 87 C-163.30600758 93.08023753 -161.7284116 97.19948834 -157.9609375 101.8828125 C-152.56836838 107.7050684 -147.1362277 112.5952053 -140.5625 117.0625 C-136.18362622 120.07817688 -131.81226282 123.09758067 -127.52734375 126.24609375 C-126.8737085 126.72618896 -126.22007324 127.20628418 -125.54663086 127.70092773 C-123.08139432 129.77157077 -122.99998943 131.00010993 -122.6875 134.25 C-123.04844145 138.58129737 -124.08863619 140.89436498 -127 144 C-130.60029197 146.79707126 -134.4100435 149.23420266 -138.25 151.6875 C-140.42108734 153.10468097 -142.59165899 154.52265229 -144.76171875 155.94140625 C-145.82438965 156.63121582 -146.88706055 157.32102539 -147.98193359 158.03173828 C-152.04309091 160.68026201 -156.06244185 163.38532097 -160.0625 166.125 C-160.67319336 166.53709717 -161.28388672 166.94919434 -161.91308594 167.3737793 C-167.17136516 170.97506863 -172.43758274 174.6563741 -176 180 C-175.69159401 182.15274948 -175.69159401 182.15274948 -175 184 C-160.74779119 188.04892296 -140.65161909 175.79217355 -128.234375 169.671875 C-112.21334802 161.77952093 -112.21334802 161.77952093 -102.5 163.6875 C-98.2252811 165.93172742 -97.51591642 170.27599774 -95.875 174.625 C-93.19465022 181.06874787 -89.57841338 185.79088682 -85 191 C-75.27914779 202.24883048 -65.89449769 213.49050614 -59.25390625 226.890625 C-58.03323727 229.28968549 -58.03323727 229.28968549 -55 231 C-52.06788632 228.06788632 -52.63179639 224.98741605 -52.625 221.0625 C-52.58826172 219.99805664 -52.58826172 219.99805664 -52.55078125 218.91210938 C-52.48749076 207.08733541 -58.89272497 197.15108799 -64.66601562 187.25 C-68.88425721 179.79794962 -72.83539867 171.88911141 -71.5625 163.125 C-70.19874763 158.44808236 -68.07893596 156.58855551 -64 154 C-55.50933495 149.75466748 -44.72173447 152.08976911 -35.625 153 C-27.72448319 153.7746943 -19.87696689 154.24340338 -11.9375 154.3125 C-11.01598145 154.32990234 -10.09446289 154.34730469 -9.14501953 154.36523438 C-4.25348521 154.36158466 -1.00072948 154.15234194 3 151 C-4.72472017 140.58333189 -15.88949325 137.50457696 -28.36572266 135.64794922 C-39.61748643 134.24231411 -50.94352026 133.70666784 -62.2734375 133.42895508 C-67.50989056 133.26671057 -72.09398421 132.91580564 -77 131 C-80.53912166 125.69131751 -78.53647783 119.11518232 -77.4921875 113.05126953 C-76.88192386 110.04012702 -76.20731256 107.05232169 -75.5 104.0625 C-75.24371826 102.96292969 -74.98743652 101.86335938 -74.72338867 100.73046875 C-71.74219151 88.34288555 -67.89684961 76.24840413 -63.99462891 64.125 C-62.60737049 59.76640705 -61.29260405 55.3874746 -60 51 C-60.66 51 -61.32 51 -62 51 Z " fill="#ED2129" transform="translate(989,0)"/>
<path d="M0 0 C30.69 0 61.38 0 93 0 C93 58.74 93 117.48 93 178 C62.31 178 31.62 178 0 178 C0 119.26 0 60.52 0 0 Z " fill="#0372BB" transform="translate(843,345)"/>
<path d="M0 0 C30.69 0 61.38 0 93 0 C93 58.74 93 117.48 93 178 C62.31 178 31.62 178 0 178 C0 119.26 0 60.52 0 0 Z " fill="#0372BB" transform="translate(326,345)"/>
<path d="M0 0 C30.69 0 61.38 0 93 0 C93 17.49 93 34.98 93 53 C62.31 53 31.62 53 0 53 C0 35.51 0 18.02 0 0 Z " fill="#0372BC" transform="translate(326,243)"/>
<path d="M0 0 C0.94230469 -0.01611328 1.88460938 -0.03222656 2.85546875 -0.04882812 C8.92106942 -0.05302287 14.6662783 0.45242048 20.125 3.3125 C22.72006216 7.00849762 23.125 8.77587701 23.125 13.3125 C20.485 13.3125 17.845 13.3125 15.125 13.3125 C14.63 10.8375 14.63 10.8375 14.125 8.3125 C9.64584672 8.28363662 5.16671709 8.26574813 0.6875 8.25 C-0.59189453 8.24162109 -1.87128906 8.23324219 -3.18945312 8.22460938 C-4.40439453 8.22138672 -5.61933594 8.21816406 -6.87109375 8.21484375 C-7.99700928 8.20960693 -9.1229248 8.20437012 -10.28295898 8.19897461 C-12.80470871 8.01704552 -12.80470871 8.01704552 -13.875 9.3125 C-13.91563832 10.97867115 -13.917721 12.64638095 -13.875 14.3125 C-10.24651989 15.13758716 -6.84646339 15.45701446 -3.12890625 15.5234375 C-2.04416016 15.55179688 -0.95941406 15.58015625 0.15820312 15.609375 C2.42366414 15.66136493 4.68931499 15.70566397 6.95507812 15.7421875 C17.75510798 16.04984414 17.75510798 16.04984414 22.125 19.3125 C24.48896546 23.53328262 24.29862242 27.59486068 23.1875 32.1875 C20.67830621 35.98930877 18.42474633 37.23384625 14.125 38.3125 C9.61843085 38.74036448 5.14872642 38.73132512 0.625 38.6875 C-0.57253906 38.69910156 -1.77007813 38.71070313 -3.00390625 38.72265625 C-9.33273955 38.70163023 -14.37736626 38.60181457 -19.875 35.3125 C-22.55427341 31.29358988 -22.03101248 29.07088077 -21.875 24.3125 C-19.565 24.3125 -17.255 24.3125 -14.875 24.3125 C-14.545 26.2925 -14.215 28.2725 -13.875 30.3125 C-3.975 30.3125 5.925 30.3125 16.125 30.3125 C15.63 27.3425 15.63 27.3425 15.125 24.3125 C12.4263527 22.96317635 10.25286455 23.1505377 7.234375 23.1015625 C6.04972656 23.07320312 4.86507813 23.04484375 3.64453125 23.015625 C1.14727934 22.96386848 -1.35013754 22.91950218 -3.84765625 22.8828125 C-5.03746094 22.851875 -6.22726563 22.8209375 -7.453125 22.7890625 C-8.54012695 22.76924316 -9.62712891 22.74942383 -10.74707031 22.72900391 C-14.35651896 22.24838266 -16.77286853 21.20058468 -19.875 19.3125 C-22.7033237 15.07001446 -22.52101271 11.29252205 -21.875 6.3125 C-19.63002527 2.72054042 -17.03233201 1.81880909 -13.02661133 0.72705078 C-8.71592647 -0.10348852 -4.37539325 -0.0148419 0 0 Z " fill="#1E81C3" transform="translate(24.875,572.6875)"/>
<path d="M0 0 C1.95969727 -0.0309375 1.95969727 -0.0309375 3.95898438 -0.0625 C17.47814515 -0.11748388 17.47814515 -0.11748388 23.5625 4.75 C26.65609432 8.87479243 25.90950813 14.16742226 25.9375 19.0625 C25.958125 19.95259766 25.97875 20.84269531 26 21.75976562 C26.03070312 26.93707878 25.91824013 30.96204613 22.6875 35.25 C17.75723036 37.79300117 14.08846029 38.63281893 8.46875 38.6484375 C7.80717896 38.65130768 7.14560791 38.65417786 6.46398926 38.65713501 C5.07575618 38.65916172 3.68749363 38.65373013 2.29931641 38.64111328 C0.19237512 38.6250372 -1.91264856 38.64100723 -4.01953125 38.66015625 C-5.37760834 38.65817357 -6.73568425 38.65432937 -8.09375 38.6484375 C-9.31126953 38.64505371 -10.52878906 38.64166992 -11.78320312 38.63818359 C-15.95721365 38.17908863 -18.58930869 37.1712677 -22.3125 35.25 C-26.01604722 30.29933994 -25.76561373 25.11980366 -25.6875 19.1875 C-25.69910156 18.30255859 -25.71070313 17.41761719 -25.72265625 16.50585938 C-25.70059246 11.60402007 -25.50285762 8.22039615 -22.3125 4.25 C-16.09497678 -1.36582742 -7.88306303 0.03083839 0 0 Z M-17.3125 9.25 C-17.62234531 11.34813381 -17.62234531 11.34813381 -17.578125 13.75 C-17.58070313 14.636875 -17.58328125 15.52375 -17.5859375 16.4375 C-17.57820312 17.365625 -17.57046875 18.29375 -17.5625 19.25 C-17.57023438 20.178125 -17.57796875 21.10625 -17.5859375 22.0625 C-17.58335937 22.949375 -17.58078125 23.83625 -17.578125 24.75 C-17.57586914 25.5646875 -17.57361328 26.379375 -17.57128906 27.21875 C-17.49424293 29.47630451 -17.49424293 29.47630451 -15.3125 31.25 C-12.13826476 31.56251372 -12.13826476 31.56251372 -8.40625 31.515625 C-7.72574585 31.51753845 -7.0452417 31.5194519 -6.34411621 31.52142334 C-4.90502554 31.52278463 -3.46592256 31.51909205 -2.02685547 31.51074219 C0.17899087 31.50004128 2.38402281 31.51063872 4.58984375 31.5234375 C5.98698097 31.52211589 7.38411768 31.51955348 8.78125 31.515625 C10.05677734 31.51336914 11.33230469 31.51111328 12.64648438 31.50878906 C15.7975243 31.56971066 15.7975243 31.56971066 17.6875 29.25 C17.99734531 27.15186619 17.99734531 27.15186619 17.953125 24.75 C17.95570313 23.863125 17.95828125 22.97625 17.9609375 22.0625 C17.94933594 20.6703125 17.94933594 20.6703125 17.9375 19.25 C17.94523438 18.321875 17.95296875 17.39375 17.9609375 16.4375 C17.95707031 15.1071875 17.95707031 15.1071875 17.953125 13.75 C17.95086914 12.9353125 17.94861328 12.120625 17.94628906 11.28125 C17.86924293 9.02369549 17.86924293 9.02369549 15.6875 7.25 C12.51326476 6.93748628 12.51326476 6.93748628 8.78125 6.984375 C8.10074585 6.98246155 7.4202417 6.9805481 6.71911621 6.97857666 C5.28002554 6.97721537 3.84092256 6.98090795 2.40185547 6.98925781 C0.19600913 6.99995872 -2.00902281 6.98936128 -4.21484375 6.9765625 C-5.61198097 6.97788411 -7.00911768 6.98044652 -8.40625 6.984375 C-9.68177734 6.98663086 -10.95730469 6.98888672 -12.27148438 6.99121094 C-15.4225243 6.93028934 -15.4225243 6.93028934 -17.3125 9.25 Z " fill="#2384C4" transform="translate(654.3125,572.75)"/>
<path d="M0 0 C11.25 0 11.25 0 15.3125 3.75 C16.22128906 4.56597656 17.13007813 5.38195312 18.06640625 6.22265625 C19.04493686 7.1477335 20.02276862 8.07355038 21 9 C22.11148916 10.02148468 23.22483101 11.04095644 24.33984375 12.05859375 C26.52704549 14.0597762 28.69847113 16.07595497 30.859375 18.10546875 C34.16558599 21.15261097 37.58620578 24.07389067 41 27 C41.33 18.09 41.66 9.18 42 0 C44.64 0 47.28 0 50 0 C50 11.88 50 23.76 50 36 C38.75259516 36 38.75259516 36 34.5625 32.125 C33.64726562 31.30386719 32.73203125 30.48273437 31.7890625 29.63671875 C30.86867188 28.76660156 29.94828125 27.89648438 29 27 C27.14735793 25.31082635 25.29320085 23.62331275 23.4375 21.9375 C22.22900391 20.80634766 22.22900391 20.80634766 20.99609375 19.65234375 C16.80209769 15.93953628 12.37387911 12.49910329 8 9 C8 17.91 8 26.82 8 36 C5.36 36 2.72 36 0 36 C0 24.12 0 12.24 0 0 Z " fill="#1A7EC2" transform="translate(232,574)"/>
<path d="M0 0 C13.2 0 26.4 0 40 0 C40 1.98 40 3.96 40 6 C29.44 6 18.88 6 8 6 C8 8.64 8 11.28 8 14 C8.90355225 13.99476318 9.80710449 13.98952637 10.73803711 13.98413086 C14.07951489 13.96712314 17.42094692 13.95456667 20.76245117 13.94506836 C22.21070073 13.94002899 23.65894517 13.93319747 25.10717773 13.92456055 C27.18474588 13.91247753 29.26224697 13.90676789 31.33984375 13.90234375 C32.59144287 13.89710693 33.84304199 13.89187012 35.13256836 13.88647461 C38 14 38 14 39 15 C39.125 17.5 39.125 17.5 39 20 C38 21 38 21 35.13256836 21.11352539 C33.88096924 21.10828857 32.62937012 21.10305176 31.33984375 21.09765625 C30.34314415 21.09553383 30.34314415 21.09553383 29.3263092 21.09336853 C27.19666101 21.08775518 25.06711661 21.07520054 22.9375 21.0625 C21.49674631 21.05748671 20.05599097 21.05292351 18.61523438 21.04882812 C15.07678898 21.03778145 11.53840461 21.02050792 8 21 C8 23.97 8 26.94 8 30 C18.56 30 29.12 30 40 30 C40 31.98 40 33.96 40 36 C26.8 36 13.6 36 0 36 C0 24.12 0 12.24 0 0 Z " fill="#1D80C2" transform="translate(808,574)"/>
<path d="M0 0 C5.46349235 -0.09195219 10.92428911 -0.17155047 16.38793945 -0.21972656 C18.24545398 -0.23981305 20.10290551 -0.26708778 21.96020508 -0.30175781 C24.63378463 -0.35040737 27.30652656 -0.37299809 29.98046875 -0.390625 C30.80773972 -0.41127014 31.63501068 -0.43191528 32.48735046 -0.45318604 C36.52841025 -0.45475043 38.50278957 -0.31467479 42.0012207 1.89941406 C45.06662337 5.1209512 45.15829634 7.01781408 45.1875 11.375 C45.20167969 12.33148437 45.21585938 13.28796875 45.23046875 14.2734375 C45 17 45 17 43.86328125 19.1015625 C43.43595703 20.04128906 43.43595703 20.04128906 43 21 C43.62149773 22.35497704 44.29470445 23.68669105 45 25 C45.1953125 27.796875 45.1953125 27.796875 45.125 30.75 C45.10695313 31.73484375 45.08890625 32.7196875 45.0703125 33.734375 C45.04710937 34.48203125 45.02390625 35.2296875 45 36 C42.36 36 39.72 36 37 36 C37 32.04 37 28.08 37 24 C22.15 23.505 22.15 23.505 7 23 C7 27.29 7 31.58 7 36 C4.69 36 2.38 36 0 36 C0 24.12 0 12.24 0 0 Z M7 6 C6.97311849 7.64574566 6.95365877 9.29161413 6.9375 10.9375 C6.92589844 11.85402344 6.91429687 12.77054688 6.90234375 13.71484375 C6.74050951 15.96593327 6.74050951 15.96593327 8 17 C11.90999424 17.25386802 15.83274702 17.18523307 19.75 17.1875 C21.39742187 17.20586914 21.39742187 17.20586914 23.078125 17.22460938 C24.1403125 17.22654297 25.2025 17.22847656 26.296875 17.23046875 C27.26979492 17.23457764 28.24271484 17.23868652 29.24511719 17.24291992 C32.17082294 16.98493718 34.3436027 16.22139817 37 15 C37 12.36 37 9.72 37 7 C34.18175808 5.59087904 31.82748718 5.88816447 28.6796875 5.90234375 C26.79443359 5.90717773 26.79443359 5.90717773 24.87109375 5.91210938 C23.55238281 5.92048828 22.23367188 5.92886719 20.875 5.9375 C19.53515789 5.94251511 18.195314 5.94707799 16.85546875 5.95117188 C13.57026794 5.96298914 10.28515603 5.97946383 7 6 Z " fill="#117ABF" transform="translate(542,574)"/>
<path d="M0 0 C14.52 0 29.04 0 44 0 C44 5 44 5 41.83203125 7.32421875 C40.83558594 8.10410156 39.83914063 8.88398437 38.8125 9.6875 C38.01187134 10.32389404 38.01187134 10.32389404 37.19506836 10.97314453 C35.47581722 12.33225017 33.7398027 13.66733415 32 15 C30.82776034 15.90968654 29.65588294 16.81984009 28.484375 17.73046875 C26.30065205 19.42215442 24.10862921 21.10074555 21.91015625 22.7734375 C19.24511437 24.81246283 16.62028584 26.90377133 14 29 C24.23 29.33 34.46 29.66 45 30 C45 31.98 45 33.96 45 36 C29.82 36 14.64 36 -1 36 C-1 30 -1 30 1.1328125 27.83203125 C2.12023437 27.16558594 3.10765625 26.49914062 4.125 25.8125 C5.22289271 25.04777704 6.31917906 24.28074402 7.4140625 23.51171875 C7.99575195 23.11001465 8.57744141 22.70831055 9.17675781 22.29443359 C12.37630614 20.02287424 15.43034177 17.56764173 18.5 15.125 C21.97237339 12.37695169 25.45682736 9.65737948 29 7 C19.43 6.67 9.86 6.34 0 6 C0 4.02 0 2.04 0 0 Z " fill="#137BC0" transform="translate(888,574)"/>
<path d="M0 0 C5.46396768 -0.11495023 10.92372478 -0.21443187 16.38793945 -0.2746582 C18.24550609 -0.29976702 20.10297427 -0.33386134 21.96020508 -0.37719727 C24.63387358 -0.43801124 27.30623365 -0.4662452 29.98046875 -0.48828125 C31.2213752 -0.52699089 31.2213752 -0.52699089 32.48735046 -0.56648254 C36.80753074 -0.5685731 38.48823409 -0.39444146 42.02441406 2.33105469 C44.46910638 5.6337458 44.642787 7.48675396 44.5625 11.5625 C44.56378906 12.67753906 44.56507813 13.79257812 44.56640625 14.94140625 C43.89087217 18.58929029 42.90381363 19.76021634 40 22 C36.58248347 23.13917218 33.96512063 23.11338481 30.36328125 23.09765625 C29.06455078 23.09443359 27.76582031 23.09121094 26.42773438 23.08789062 C25.05598892 23.07953531 23.68424413 23.07107037 22.3125 23.0625 C20.92903805 23.05748335 19.54557437 23.05292073 18.16210938 23.04882812 C14.77472104 23.03702538 11.3873551 23.01908967 8 23 C8 27.29 8 31.58 8 36 C5.36 36 2.72 36 0 36 C0 24.12 0 12.24 0 0 Z M8 6 C8 9.63 8 13.26 8 17 C12.10421014 17.02690305 16.20824497 17.04679208 20.3125 17.0625 C21.47974609 17.07087891 22.64699219 17.07925781 23.84960938 17.08789062 C24.96787109 17.09111328 26.08613281 17.09433594 27.23828125 17.09765625 C28.7857605 17.10551147 28.7857605 17.10551147 30.36450195 17.11352539 C33.10946274 17.11635 33.10946274 17.11635 36 16 C37.38125018 13.23749964 37.19079306 11.05268901 37 8 C35.14977843 5.71944677 35.14977843 5.71944677 32.29443359 5.77294922 C31.17375488 5.78342285 30.05307617 5.79389648 28.8984375 5.8046875 C27.68671875 5.81113281 26.475 5.81757812 25.2265625 5.82421875 C23.95554687 5.84097656 22.68453125 5.85773437 21.375 5.875 C20.09625 5.88402344 18.8175 5.89304687 17.5 5.90234375 C14.33314833 5.92597697 11.16666576 5.95892371 8 6 Z " fill="#137BC0" transform="translate(723,574)"/>
<path d="M0 0 C2.91993171 0.09269624 4.08957468 0.4282626 6.25390625 2.4296875 C7.98695049 4.77285314 9.58599311 7.16553603 11.12255859 9.64160156 C12.72253841 12.20703522 14.37126643 14.73876488 16.01953125 17.2734375 C18.54721702 21.18348153 21.06760094 25.09770803 23.55859375 29.03125 C24.0889624 29.86720703 24.61933105 30.70316406 25.16577148 31.56445312 C26.4375 33.75 26.4375 33.75 27.4375 36.75 C24.75 37.5625 24.75 37.5625 21.4375 37.75 C18.29497998 35.23598399 16.71426963 33.5803089 15.4375 29.75 C5.5375 29.75 -4.3625 29.75 -14.5625 29.75 C-15.5525 32.225 -15.5525 32.225 -16.5625 34.75 C-16.8925 35.41 -17.2225 36.07 -17.5625 36.75 C-20.5325 36.75 -23.5025 36.75 -26.5625 36.75 C-25.03334867 32.34537933 -22.67810574 28.69399471 -20.0625 24.875 C-19.16778613 23.55220683 -18.27326076 22.22928616 -17.37890625 20.90625 C-16.68692139 19.88724609 -16.68692139 19.88724609 -15.98095703 18.84765625 C-13.19094347 14.72170159 -10.44913524 10.56339005 -7.69921875 6.41064453 C-3.99520589 0.84109598 -3.99520589 0.84109598 0 0 Z M-0.5625 8.75 C-2.19552535 11.03446687 -3.70714394 13.30736503 -5.1875 15.6875 C-5.60773438 16.34685547 -6.02796875 17.00621094 -6.4609375 17.68554688 C-8.60515339 20.51717007 -8.60515339 20.51717007 -9.5625 23.75 C-2.9625 23.75 3.6375 23.75 10.4375 23.75 C7.53591362 17.94682725 5.3252841 13.66088518 1.4375 8.75 C0.7775 8.75 0.1175 8.75 -0.5625 8.75 Z " fill="#127AC0" transform="translate(113.5625,573.25)"/>
<path d="M0 0 C15.18 0 30.36 0 46 0 C46 1.98 46 3.96 46 6 C39.73 6 33.46 6 27 6 C27 15.9 27 25.8 27 36 C24.36 36 21.72 36 19 36 C19 26.1 19 16.2 19 6 C12.73 6 6.46 6 0 6 C0 4.02 0 2.04 0 0 Z " fill="#187DC1" transform="translate(321,574)"/>
<path d="M0 0 C14.85 0 29.7 0 45 0 C45 1.98 45 3.96 45 6 C38.73 6 32.46 6 26 6 C26 15.9 26 25.8 26 36 C23.69 36 21.38 36 19 36 C19 26.1 19 16.2 19 6 C12.73 6 6.46 6 0 6 C0 4.02 0 2.04 0 0 Z " fill="#0875BD" transform="translate(457,574)"/>
<path d="M0 0 C2.31 0 4.62 0 7 0 C7 11.88 7 23.76 7 36 C4.69 36 2.38 36 0 36 C0 24.12 0 12.24 0 0 Z " fill="#0070BB" transform="translate(181,574)"/>
<path d="M0 0 C1.12535156 0.00580078 1.12535156 0.00580078 2.2734375 0.01171875 C3.02367187 0.00785156 3.77390625 0.00398437 4.546875 0 C10.14682697 0.01010822 10.14682697 0.01010822 11.2734375 1.13671875 C11.3984375 3.63671875 11.3984375 3.63671875 11.2734375 6.13671875 C9.45227747 7.95787878 6.96671986 7.26906955 4.546875 7.2734375 C3.79664063 7.26957031 3.04640625 7.26570312 2.2734375 7.26171875 C1.14808594 7.26751953 1.14808594 7.26751953 0 7.2734375 C-5.59995197 7.26332928 -5.59995197 7.26332928 -6.7265625 6.13671875 C-6.8515625 3.63671875 -6.8515625 3.63671875 -6.7265625 1.13671875 C-4.90540247 -0.68444128 -2.41984486 0.00436795 0 0 Z " fill="#3B91CA" transform="translate(406.7265625,592.86328125)"/>
</svg>
